<?xml version="1.0" encoding="UTF-8"?>
<!DOCTYPE svg PUBLIC "-//W3C//DTD SVG 1.1//EN" "http://www.w3.org/Graphics/SVG/1.1/DTD/svg11.dtd">
<svg version="1.1" xmlns="http://www.w3.org/2000/svg" xmlns:xlink="http://www.w3.org/1999/xlink" x="0" y="0" width="612" height="796.5" viewBox="0, 0, 612, 796.5">
  <defs>
    <linearGradient id="Gradient_1" gradientUnits="userSpaceOnUse" x1="2389.318" y1="6358.694" x2="2667.013" y2="6358.694" gradientTransform="matrix(0.072, 0, 0, 0.072, 0, 0)">
      <stop offset="0" stop-color="#FDD7BC"/>
      <stop offset="1" stop-color="#FAC0B5"/>
    </linearGradient>
  </defs>
  <g id="ãƒ_x00ac_ã_x201a__x00a4_ãƒ_x00a4_ãƒ_x00bc__x0020_1">
    <g>
      <path d="M38.869,528.11 C39.841,528.272 41.137,527.3 41.299,526.652 C42.109,522.44 42.919,520.334 42.919,516.932 C42.919,514.34 43.081,511.586 42.271,508.994 C41.299,505.916 38.221,498.464 36.439,495.872 L17.972,490.364 C15.38,495.386 13.598,497.654 11.816,501.056 C10.034,504.62 6.632,510.128 5.984,514.178 C5.336,517.742 6.146,520.01 6.956,523.574 C7.766,527.786 9.386,531.674 12.788,534.104 C15.056,535.724 17.486,537.182 20.24,538.154 C21.212,538.478 23.803,539.126 24.613,538.316 C25.261,537.83 24.937,536.696 24.775,536.048 C24.451,535.238 23.641,534.104 22.994,533.456 C21.212,531.836 19.592,530.054 18.296,528.11 C18.134,520.172 22.346,519.686 26.395,518.066 C27.853,517.418 29.473,516.932 31.093,517.904 C33.037,518.876 34.171,518.876 34.009,521.954 C34.009,521.954 34.981,527.462 38.869,528.11 z" fill="#FCD7C4"/>
      <path d="M38.869,528.11 C39.841,528.272 41.137,527.3 41.299,526.652 C42.109,522.44 42.919,520.334 42.919,516.932 C42.919,514.34 43.081,511.586 42.271,508.994 C41.299,505.916 38.221,498.464 36.439,495.872 L17.972,490.364 C15.38,495.386 13.598,497.654 11.816,501.056 C10.034,504.62 6.632,510.128 5.984,514.178 C5.336,517.742 6.146,520.01 6.956,523.574 C7.766,527.786 9.386,531.674 12.788,534.104 C15.056,535.724 17.486,537.182 20.24,538.154 C21.212,538.478 23.803,539.126 24.613,538.316 C25.261,537.83 24.937,536.696 24.775,536.048 C24.451,535.238 23.641,534.104 22.994,533.456 C21.212,531.836 19.592,530.054 18.296,528.11 C18.134,520.172 22.346,519.686 26.395,518.066 C27.853,517.418 29.473,516.932 31.093,517.904 C33.037,518.876 34.171,518.876 34.009,521.954 C34.009,521.954 34.981,527.462 38.869,528.11 z" fill-opacity="0" stroke="#373435" stroke-width="4.457" stroke-linejoin="round"/>
    </g>
    <g>
      <path d="M144.814,254.332 L115.169,254.332 L115.169,222.095 L144.814,222.095 z" fill="#FDDBC5"/>
      <path d="M144.814,254.332 L115.169,254.332 L115.169,222.095 L144.814,222.095 z" fill-opacity="0" stroke="#373435" stroke-width="4.484" stroke-linejoin="round"/>
    </g>
    <g>
      <path d="M272.305,615.589 C272.305,615.589 252.541,735.792 176.403,757.014 C176.403,757.014 221.6,799.458 307.944,765.114 C307.944,765.114 352.655,816.792 448.07,772.728 C448.07,772.728 508.819,804.804 578.315,773.052 C578.315,773.052 514.974,746.16 502.177,617.533 C490.027,495.548 448.394,455.697 381.328,461.367 C297.414,468.495 292.392,563.75 272.629,615.589 z" fill="#FEFEFE"/>
      <path d="M272.305,615.589 C272.305,615.589 252.541,735.792 176.403,757.014 C176.403,757.014 221.6,799.458 307.944,765.114 C307.944,765.114 352.655,816.792 448.07,772.728 C448.07,772.728 508.819,804.804 578.315,773.052 C578.315,773.052 514.974,746.16 502.177,617.533 C490.027,495.548 448.394,455.697 381.328,461.367 C297.414,468.495 292.392,563.75 272.629,615.589 z" fill-opacity="0" stroke="#373435" stroke-width="4.455" stroke-linejoin="round"/>
    </g>
    <path d="M541.866,407.421 C541.866,407.421 561.791,45.192 353.303,80.022 C353.303,80.022 238.61,238.943 250.759,415.359 C250.759,415.359 244.118,441.441 276.355,445.815 C308.592,450.189 312.318,431.559 337.103,458.127 C361.889,484.694 388.456,505.916 427.011,480.482 C465.404,455.049 478.363,442.089 506.875,450.189 C535.386,458.289 549.318,427.509 541.704,407.583 z" fill="#D5EFFC" fill-opacity="0.639"/>
    <g>
      <path d="M289.638,401.265 C279.919,397.539 246.548,394.947 216.416,383.769 L218.522,404.505 C253.351,416.655 269.227,416.979 292.392,422.811 C296.604,423.783 298.872,421.191 300.168,420.057 C325.601,395.757 331.271,366.921 336.131,358.66 L405.789,398.835 L455.846,419.895 C455.846,419.895 469.94,421.353 483.709,422.163 C488.569,422.487 493.915,420.219 492.781,411.471 C491.323,399.969 471.074,364.653 459.572,346.834 C453.254,337.6 443.372,311.194 416.319,308.278 C416.643,308.116 413.565,308.44 413.889,308.278 C413.889,308.278 393.964,309.736 400.767,278.794 L393.478,278.794 L386.026,278.794 L378.736,278.794 C382.624,313.3 369.502,310.546 369.502,310.546 C369.502,310.546 367.558,310.546 367.234,310.546 C355.733,310.708 334.835,315.73 319.77,346.024 C319.77,346.024 301.302,387.819 289.476,400.941 z" fill="#FCD7C4"/>
      <path d="M289.638,401.265 C279.919,397.539 246.548,394.947 216.416,383.769 L218.522,404.505 C253.351,416.655 269.227,416.979 292.392,422.811 C296.604,423.783 298.872,421.191 300.168,420.057 C325.601,395.757 331.271,366.921 336.131,358.66 L405.789,398.835 L455.846,419.895 C455.846,419.895 469.94,421.353 483.709,422.163 C488.569,422.487 493.915,420.219 492.781,411.471 C491.323,399.969 471.074,364.653 459.572,346.834 C453.254,337.6 443.372,311.194 416.319,308.278 C416.643,308.116 413.565,308.44 413.889,308.278 C413.889,308.278 393.964,309.736 400.767,278.794 L393.478,278.794 L386.026,278.794 L378.736,278.794 C382.624,313.3 369.502,310.546 369.502,310.546 C369.502,310.546 367.558,310.546 367.234,310.546 C355.733,310.708 334.835,315.73 319.77,346.024 C319.77,346.024 301.302,387.819 289.476,400.941 z" fill-opacity="0" stroke="#373435" stroke-width="4.457" stroke-linejoin="round"/>
    </g>
    <g>
      <path d="M481.603,399.321 L483.709,422.649 C483.709,422.649 456.332,418.923 428.631,422.325 C400.767,425.727 425.715,420.867 425.715,420.867 L427.335,391.869 C427.335,391.869 449.042,399.483 481.765,399.321 z" fill="#E7E8E8" fill-opacity="0.478"/>
      <path d="M481.603,399.321 L483.709,422.487" fill-opacity="0" stroke="#373435" stroke-width="3.475" stroke-linecap="round" stroke-linejoin="round"/>
      <path d="M483.709,422.487 C483.709,422.487 456.332,418.761 428.631,422.163 C400.767,425.565 425.715,420.705 425.715,420.705" fill-opacity="0" stroke="#373435" stroke-width="3.475" stroke-linecap="round" stroke-linejoin="round"/>
      <path d="M425.553,420.867 L427.173,391.869" fill-opacity="0" stroke="#373435" stroke-width="3.475" stroke-linecap="round" stroke-linejoin="round"/>
      <path d="M427.173,391.869 C427.173,391.869 448.88,399.483 481.603,399.321" fill-opacity="0" stroke="#373435" stroke-width="3.475" stroke-linecap="round" stroke-linejoin="round"/>
    </g>
    <path d="M179.643,448.245 C179.643,448.245 191.469,445.329 190.983,448.569 C190.497,451.809 183.045,453.915 183.045,453.915 C183.045,453.915 191.469,451.485 191.793,454.239 C192.117,456.831 187.257,459.747 184.017,460.071 C184.017,460.071 190.983,458.937 190.173,462.177 C189.363,465.417 182.559,465.903 182.559,465.903 C182.559,465.903 186.285,469.467 184.665,469.629 C175.917,470.763 174.46,468.819 176.241,466.065 C176.079,465.417 172.192,462.987 177.699,460.557 C177.699,460.557 172.678,458.451 176.727,454.239 C176.727,454.239 172.03,450.513 179.643,448.407 z" fill="url(#Gradient_1)"/>
    <g>
      <path d="M515.298,527.3 C484.357,449.865 421.503,448.569 421.503,448.569 C421.503,448.569 433.491,433.179 442.076,410.661 C450.824,388.143 440.294,360.279 440.294,360.279 L440.132,360.279 C440.132,359.956 440.294,359.793 440.294,359.469 C440.294,354.448 436.083,350.398 430.899,350.398 C427.173,350.398 423.933,352.504 422.313,355.582 C420.855,352.504 417.615,350.398 413.727,350.398 C410.001,350.398 406.761,352.504 405.141,355.582 C403.683,352.504 400.444,350.398 396.556,350.398 C392.83,350.398 389.59,352.504 387.97,355.582 C386.512,352.504 383.272,350.398 379.384,350.398 C375.658,350.398 372.418,352.504 370.798,355.582 C369.34,352.504 366.1,350.398 362.213,350.398 C358.487,350.398 355.085,352.504 353.627,355.582 C352.169,352.504 348.929,350.398 345.041,350.398 C339.857,350.398 335.645,354.448 335.645,359.469 C335.645,359.793 335.645,359.956 335.645,360.279 L335.483,360.279 C335.483,360.279 323.01,378.585 331.757,401.103 C335.159,410.013 340.991,418.437 343.259,422.487 C352.331,437.715 351.359,450.189 351.359,450.189 C351.359,450.189 274.411,465.417 256.753,531.998 C256.753,531.998 243.308,588.536 237.638,648.151 C231.968,707.767 213.986,726.882 203.943,731.904 C193.737,736.926 300.168,751.668 322.686,644.101 C322.686,644.101 378.736,627.253 379.708,523.736 C379.708,523.736 384.406,635.029 446.126,641.833 C446.126,641.833 475.609,741.462 553.691,737.412 C553.691,737.412 540.732,711.492 536.844,662.569 C532.956,613.645 524.532,550.79 514.65,527.138 z" fill="#FEFEFE"/>
      <path d="M515.298,527.3 C484.357,449.865 421.503,448.569 421.503,448.569 C421.503,448.569 433.491,433.179 442.076,410.661 C450.824,388.143 440.294,360.279 440.294,360.279 L440.132,360.279 C440.132,359.956 440.294,359.793 440.294,359.469 C440.294,354.448 436.083,350.398 430.899,350.398 C427.173,350.398 423.933,352.504 422.313,355.582 C420.855,352.504 417.615,350.398 413.727,350.398 C410.001,350.398 406.761,352.504 405.141,355.582 C403.683,352.504 400.444,350.398 396.556,350.398 C392.83,350.398 389.59,352.504 387.97,355.582 C386.512,352.504 383.272,350.398 379.384,350.398 C375.658,350.398 372.418,352.504 370.798,355.582 C369.34,352.504 366.1,350.398 362.213,350.398 C358.487,350.398 355.085,352.504 353.627,355.582 C352.169,352.504 348.929,350.398 345.041,350.398 C339.857,350.398 335.645,354.448 335.645,359.469 C335.645,359.793 335.645,359.956 335.645,360.279 L335.483,360.279 C335.483,360.279 323.01,378.585 331.757,401.103 C335.159,410.013 340.991,418.437 343.259,422.487 C352.331,437.715 351.359,450.189 351.359,450.189 C351.359,450.189 274.411,465.417 256.753,531.998 C256.753,531.998 243.308,588.536 237.638,648.151 C231.968,707.767 213.986,726.882 203.943,731.904 C193.737,736.926 300.168,751.668 322.686,644.101 C322.686,644.101 378.736,627.253 379.708,523.736 C379.708,523.736 384.406,635.029 446.126,641.833 C446.126,641.833 475.609,741.462 553.691,737.412 C553.691,737.412 540.732,711.492 536.844,662.569 C532.956,613.645 524.532,550.79 514.65,527.138 z" fill-opacity="0" stroke="#373435" stroke-width="4.455" stroke-linejoin="round"/>
    </g>
    <g>
      <g>
        <path d="M430.413,443.385 C439.808,451.647 436.569,458.937 424.419,457.641 C425.715,469.791 418.263,473.031 410.163,463.635 C401.901,473.031 394.612,469.791 395.908,457.641 C383.758,458.937 380.518,451.485 389.914,443.385 C380.356,435.123 383.758,427.833 395.908,429.129 C394.612,416.979 402.063,413.739 410.163,423.135 C418.425,413.739 425.715,416.979 424.419,429.129 C436.569,427.833 439.808,435.285 430.413,443.385 z" fill="#FFCE40"/>
        <path d="M430.413,443.385 C439.808,451.647 436.569,458.937 424.419,457.641 C425.715,469.791 418.263,473.031 410.163,463.635 C401.901,473.031 394.612,469.791 395.908,457.641 C383.758,458.937 380.518,451.485 389.914,443.385 C380.356,435.123 383.758,427.833 395.908,429.129 C394.612,416.979 402.063,413.739 410.163,423.135 C418.425,413.739 425.715,416.979 424.419,429.129 C436.569,427.833 439.808,435.285 430.413,443.385 z" fill-opacity="0" stroke="#373435" stroke-width="4.455" stroke-linejoin="round"/>
      </g>
      <g>
        <path d="M469.94,386.847 C479.497,395.109 476.095,402.399 463.946,401.103 C465.242,413.253 457.79,416.493 449.69,407.097 C441.428,416.493 434.139,413.253 435.435,401.103 C423.285,402.399 420.045,394.947 429.441,386.847 C419.883,378.585 423.285,371.295 435.435,372.591 C434.139,360.441 441.59,357.202 449.69,366.597 C457.952,357.202 465.242,360.441 463.946,372.591 C475.933,371.295 479.335,378.747 469.94,386.847 z" fill="#FFCE40"/>
        <path d="M469.94,386.847 C479.497,395.109 476.095,402.399 463.946,401.103 C465.242,413.253 457.79,416.493 449.69,407.097 C441.428,416.493 434.139,413.253 435.435,401.103 C423.285,402.399 420.045,394.947 429.441,386.847 C419.883,378.585 423.285,371.295 435.435,372.591 C434.139,360.441 441.59,357.202 449.69,366.597 C457.952,357.202 465.242,360.441 463.946,372.591 C475.933,371.295 479.335,378.747 469.94,386.847 z" fill-opacity="0" stroke="#373435" stroke-width="4.455" stroke-linejoin="round"/>
      </g>
      <g>
        <path d="M396.556,384.093 C406.113,392.355 402.711,399.645 390.562,398.349 C391.858,410.499 384.406,413.739 376.306,404.343 C368.044,413.739 360.755,410.499 362.051,398.349 C349.901,399.645 346.661,392.193 356.057,384.093 C346.499,375.831 349.901,368.541 362.051,369.837 C360.755,357.688 368.206,354.448 376.306,363.843 C384.568,354.448 391.858,357.688 390.562,369.837 C402.711,368.541 405.951,375.993 396.556,384.093 z" fill="#FFCE40"/>
        <path d="M396.556,384.093 C406.113,392.355 402.711,399.645 390.562,398.349 C391.858,410.499 384.406,413.739 376.306,404.343 C368.044,413.739 360.755,410.499 362.051,398.349 C349.901,399.645 346.661,392.193 356.057,384.093 C346.499,375.831 349.901,368.541 362.051,369.837 C360.755,357.688 368.206,354.448 376.306,363.843 C384.568,354.448 391.858,357.688 390.562,369.837 C402.711,368.541 405.951,375.993 396.556,384.093 z" fill-opacity="0" stroke="#373435" stroke-width="4.455" stroke-linejoin="round"/>
      </g>
      <g>
        <path d="M395.422,420.705 C404.007,428.157 400.929,434.799 390.076,433.665 C391.21,444.519 384.568,447.597 377.116,439.011 C369.664,447.597 363.022,444.519 364.156,433.665 C353.303,434.799 350.225,428.157 358.811,420.705 C350.225,413.253 353.303,406.611 364.156,407.745 C363.022,396.891 369.664,393.813 377.116,402.399 C384.568,393.813 391.21,396.891 390.076,407.745 C400.929,406.611 404.007,413.253 395.422,420.705 z" fill="#FBB042"/>
        <path d="M395.422,420.705 C404.007,428.157 400.929,434.799 390.076,433.665 C391.21,444.519 384.568,447.597 377.116,439.011 C369.664,447.597 363.022,444.519 364.156,433.665 C353.303,434.799 350.225,428.157 358.811,420.705 C350.225,413.253 353.303,406.611 364.156,407.745 C363.022,396.891 369.664,393.813 377.116,402.399 C384.568,393.813 391.21,396.891 390.076,407.745 C400.929,406.611 404.007,413.253 395.422,420.705 z" fill-opacity="0" stroke="#373435" stroke-width="4.455" stroke-linejoin="round"/>
      </g>
      <g>
        <path d="M461.354,426.051 C468.968,432.693 466.376,438.687 456.494,437.553 C457.628,447.273 451.634,450.027 444.992,442.251 C438.35,449.865 432.357,447.273 433.491,437.553 C423.771,438.687 421.017,432.693 428.631,426.051 C421.017,419.409 423.609,413.415 433.491,414.549 C432.357,404.829 438.35,402.075 444.992,409.851 C451.634,402.237 457.628,404.829 456.494,414.549 C466.214,413.415 468.968,419.409 461.354,426.051 z" fill="#FBB042"/>
        <path d="M461.354,426.051 C468.968,432.693 466.376,438.687 456.494,437.553 C457.628,447.273 451.634,450.027 444.992,442.251 C438.35,449.865 432.357,447.273 433.491,437.553 C423.771,438.687 421.017,432.693 428.631,426.051 C421.017,419.409 423.609,413.415 433.491,414.549 C432.357,404.829 438.35,402.075 444.992,409.851 C451.634,402.237 457.628,404.829 456.494,414.549 C466.214,413.415 468.968,419.409 461.354,426.051 z" fill-opacity="0" stroke="#373435" stroke-width="4.455" stroke-linejoin="round"/>
      </g>
      <g>
        <path d="M432.357,369.837 C439.97,376.479 437.379,382.473 427.659,381.339 C428.793,391.059 422.799,393.813 416.157,386.037 C409.515,393.651 403.521,391.059 404.655,381.339 C394.936,382.473 392.182,376.479 399.796,369.837 C392.182,363.195 394.774,357.202 404.655,358.336 C403.521,348.616 409.515,345.862 416.157,353.638 C422.799,346.024 428.793,348.616 427.659,358.336 C437.379,357.202 440.132,363.195 432.357,369.837 z" fill="#FBB042"/>
        <path d="M432.357,369.837 C439.97,376.479 437.379,382.473 427.659,381.339 C428.793,391.059 422.799,393.813 416.157,386.037 C409.515,393.651 403.521,391.059 404.655,381.339 C394.936,382.473 392.182,376.479 399.796,369.837 C392.182,363.195 394.774,357.202 404.655,358.336 C403.521,348.616 409.515,345.862 416.157,353.638 C422.799,346.024 428.793,348.616 427.659,358.336 C437.379,357.202 440.132,363.195 432.357,369.837 z" fill-opacity="0" stroke="#373435" stroke-width="4.455" stroke-linejoin="round"/>
      </g>
      <g>
        <path d="M435.759,407.583 C445.154,415.845 441.914,423.135 429.765,421.839 C431.061,433.989 423.609,437.229 415.509,427.833 C407.247,437.229 399.957,433.989 401.253,421.839 C389.104,423.135 385.864,415.683 395.26,407.583 C385.864,399.321 389.104,392.031 401.253,393.327 C399.957,381.177 407.409,377.937 415.509,387.333 C423.771,377.937 431.061,381.177 429.765,393.327 C441.914,392.031 445.154,399.483 435.759,407.583 z" fill="#F58C84"/>
        <path d="M435.759,407.583 C445.154,415.845 441.914,423.135 429.765,421.839 C431.061,433.989 423.609,437.229 415.509,427.833 C407.247,437.229 399.957,433.989 401.253,421.839 C389.104,423.135 385.864,415.683 395.26,407.583 C385.864,399.321 389.104,392.031 401.253,393.327 C399.957,381.177 407.409,377.937 415.509,387.333 C423.771,377.937 431.061,381.177 429.765,393.327 C441.914,392.031 445.154,399.483 435.759,407.583 z" fill-opacity="0" stroke="#373435" stroke-width="4.455" stroke-linejoin="round"/>
      </g>
    </g>
    <g>
      <path d="M214.958,97.032 C215.444,44.22 196.329,22.836 175.269,24.942 L175.269,25.428 C161.338,0.157 102.047,4.531 102.047,4.531 L112.253,12.144 C112.253,12.144 84.228,9.552 69.486,16.68 C69.486,16.68 86.172,22.512 90.708,24.132 C50.857,39.198 42.757,65.442 42.757,65.442 C31.579,96.06 46.645,153.083 46.645,153.083 L203.943,155.189 C213.662,136.721 214.958,97.032 214.958,97.032 z" fill="#7A563B"/>
      <path d="M214.958,97.032 C215.444,44.22 196.329,22.836 175.269,24.942 L175.269,25.428 C161.338,0.157 102.047,4.531 102.047,4.531 L112.253,12.144 C112.253,12.144 84.228,9.552 69.486,16.68 C69.486,16.68 86.172,22.512 90.708,24.132 C50.857,39.198 42.757,65.442 42.757,65.442 C31.579,96.06 46.645,153.083 46.645,153.083 L203.943,155.189 C213.662,136.721 214.958,97.032 214.958,97.032 z" fill-opacity="0" stroke="#373435" stroke-width="4.455" stroke-linejoin="round"/>
    </g>
    <path d="M72.726,163.613 L59.281,142.877 C59.281,142.877 35.467,132.185 32.065,149.195 C27.529,170.579 59.281,171.875 72.726,163.775 z" fill="#FDDBC5"/>
    <path d="M59.281,142.877 C59.281,142.877 35.467,132.185 32.065,149.195 C27.529,170.579 59.281,171.875 72.726,163.775" fill-opacity="0" stroke="#373435" stroke-width="4.455" stroke-linecap="round" stroke-linejoin="round"/>
    <path d="M182.235,159.725 L195.681,138.989 C195.681,138.989 219.494,128.297 222.896,145.307 C227.432,166.691 195.681,167.987 182.235,159.887 z" fill="#FDDBC5"/>
    <path d="M195.681,138.989 C195.681,138.989 219.494,128.297 222.896,145.307 C227.432,166.691 195.681,167.987 182.235,159.887" fill-opacity="0" stroke="#373435" stroke-width="4.455" stroke-linecap="round" stroke-linejoin="round"/>
    <g>
      <path d="M54.907,171.389 C59.119,212.213 84.066,225.659 106.097,232.625 C113.711,235.703 124.565,237.161 136.391,236.189 C147.244,235.379 156.802,232.787 163.768,229.061 C187.905,219.665 206.535,194.393 205.239,158.753 L203.133,115.662 C194.547,106.752 172.192,67.548 172.192,67.548 C172.192,67.548 130.559,88.77 81.96,105.294 C91.518,95.898 103.343,82.29 108.527,77.754 C98.646,80.994 66.246,107.724 52.315,120.522 L55.069,171.227 z" fill="#FCD7C4"/>
      <path d="M54.907,171.389 C59.119,212.213 84.066,225.659 106.097,232.625 C113.711,235.703 124.565,237.161 136.391,236.189 C147.244,235.379 156.802,232.787 163.768,229.061 C187.905,219.665 206.535,194.393 205.239,158.753 L203.133,115.662 C194.547,106.752 172.192,67.548 172.192,67.548 C172.192,67.548 130.559,88.77 81.96,105.294 C91.518,95.898 103.343,82.29 108.527,77.754 C98.646,80.994 66.246,107.724 52.315,120.522 L55.069,171.227 z" fill-opacity="0" stroke="#373435" stroke-width="4.455" stroke-linejoin="round"/>
    </g>
    <g>
      <path d="M148.702,150.653 C148.864,152.921 155.344,154.541 163.282,154.055 C171.22,153.569 177.537,151.301 177.375,149.033 C177.213,146.765 170.734,145.145 162.796,145.631 C154.858,146.117 148.54,148.385 148.702,150.653 z" fill="#F8B7B3" fill-opacity="0.702"/>
      <path d="M161.824,146.279 L161.014,132.833 C161.014,132.833 161.014,138.665 161.824,146.279 z" fill="#FEFEFE"/>
      <path d="M161.014,132.833 C161.014,132.833 161.014,138.665 161.824,146.279" fill-opacity="0" stroke="#373435" stroke-width="5.978" stroke-linecap="round" stroke-linejoin="round"/>
      <path d="M76.776,152.597 C76.776,155.027 83.256,156.809 91.194,156.647 C99.132,156.485 105.611,154.541 105.611,152.273 C105.611,149.843 99.132,148.061 91.194,148.223 C83.256,148.385 76.776,150.329 76.776,152.597 z" fill="#F8B7B3" fill-opacity="0.702"/>
      <path d="M93.462,148.061 L92.652,134.615 C92.652,134.615 92.814,140.447 93.462,148.061 z" fill="#FEFEFE"/>
      <path d="M92.652,134.777 C92.652,134.777 92.814,140.609 93.462,148.223" fill-opacity="0" stroke="#373435" stroke-width="5.978" stroke-linecap="round" stroke-linejoin="round"/>
    </g>
    <path d="M129.101,149.195 C129.911,157.133 115.007,149.033 115.655,156.647 C115.979,161.507 126.995,163.127 130.721,163.613" fill-opacity="0" stroke="#373435" stroke-width="4.455" stroke-linecap="round" stroke-linejoin="round"/>
    <path d="M129.911,191.963 C115.655,191.963 103.667,187.103 102.857,186.779 C101.723,186.293 101.237,184.997 101.723,183.863 C102.209,182.729 103.505,182.243 104.639,182.729 C104.963,182.891 131.207,199.415 153.886,180.947 C154.858,180.137 156.316,180.623 156.964,181.595 C157.612,182.567 157.45,184.187 156.316,184.673 C148.054,188.399 139.144,190.991 129.749,192.125 z" fill="#373435"/>
    <g>
      <g>
        <path d="M332.081,277.174 C332.081,277.174 282.835,233.759 296.766,163.775 C296.766,163.775 308.592,103.998 374.362,91.686 C431.709,80.994 440.618,112.098 440.618,112.098 C440.618,112.098 467.186,109.02 481.603,145.307 C488.569,162.965 489.217,203.465 472.37,235.055 C464.756,249.472 458.924,263.404 445.154,275.878 C397.852,318.646 332.081,277.174 332.081,277.174 z" fill="#7A563B"/>
        <path d="M332.081,277.174 C332.081,277.174 282.835,233.759 296.766,163.775 C296.766,163.775 308.592,103.998 374.362,91.686 C431.709,80.994 440.618,112.098 440.618,112.098 C440.618,112.098 467.186,109.02 481.603,145.307 C488.569,162.965 489.217,203.465 472.37,235.055 C464.756,249.472 458.924,263.404 445.154,275.878 C397.852,318.646 332.081,277.174 332.081,277.174 z" fill-opacity="0" stroke="#373435" stroke-width="4.023" stroke-linejoin="round"/>
      </g>
      <g>
        <path d="M320.418,248.662 C312.48,253.684 299.034,249.148 293.526,240.401 C288.18,231.653 290.124,220.475 298.224,215.615 C306.162,210.593 314.424,213.509 319.932,222.257 C325.277,231.005 328.517,243.803 320.58,248.824 z" fill="#FCD7C4"/>
        <path d="M320.418,248.662 C312.48,253.684 299.034,249.148 293.526,240.401 C288.18,231.653 290.124,220.475 298.224,215.615 C306.162,210.593 314.424,213.509 319.932,222.257 C325.277,231.005 328.517,243.803 320.58,248.824 z" fill-opacity="0" stroke="#373435" stroke-width="4.082" stroke-linejoin="round"/>
      </g>
      <g>
        <path d="M457.142,248.662 C465.08,253.684 478.525,249.148 484.033,240.401 C489.379,231.653 487.435,220.475 479.335,215.615 C471.398,210.593 463.136,213.509 457.628,222.257 C452.282,231.005 449.042,243.803 457.142,248.824 z" fill="#FCD7C4"/>
        <path d="M457.142,248.662 C465.08,253.684 478.525,249.148 484.033,240.401 C489.379,231.653 487.435,220.475 479.335,215.615 C471.398,210.593 463.136,213.509 457.628,222.257 C452.282,231.005 449.042,243.803 457.142,248.824 z" fill-opacity="0" stroke="#373435" stroke-width="4.082" stroke-linejoin="round"/>
      </g>
      <g>
        <path d="M311.346,210.269 C311.346,273.61 345.851,300.016 388.456,300.016 C431.061,300.016 463.946,271.018 463.946,210.917 C459.896,158.753 426.687,143.201 426.687,143.201 C426.687,143.201 405.465,170.255 311.346,210.269 z" fill="#FCD7C4"/>
        <path d="M311.346,210.269 C311.346,273.61 345.851,300.016 388.456,300.016 C431.061,300.016 463.946,271.018 463.946,210.917 C459.896,158.753 426.687,143.201 426.687,143.201 C426.687,143.201 405.465,170.255 311.346,210.269 z" fill-opacity="0" stroke="#373435" stroke-width="4.082" stroke-linejoin="round"/>
      </g>
      <path d="M410.487,249.472 C410.487,249.472 409.839,251.254 408.057,253.684 C406.275,256.114 403.197,259.354 398.176,261.46 C393.316,263.728 386.35,264.538 379.222,262.27 C372.094,260.164 365.614,254.818 362.536,247.852 C362.536,247.852 361.241,243.965 359.135,246.07 C357.191,247.852 359.945,250.93 360.107,250.93 C360.107,250.93 361.079,252.55 363.508,254.818 C365.938,257.086 369.826,260.326 375.496,262.594 C381.166,264.862 388.618,265.834 395.746,263.89 C402.711,262.108 409.839,256.6 413.403,250.12 C413.565,250.282 416.967,245.099 416.319,243.641 C415.995,242.831 415.185,242.669 414.375,242.345 C413.079,241.859 411.783,244.613 411.621,246.07 C411.621,248.824 410.973,248.176 410.649,249.31 z" fill="#373435"/>
      <g>
        <g>
          <path d="M362.698,223.553 C362.86,225.821 356.867,227.927 349.253,228.251 C341.801,228.575 335.645,227.117 335.483,224.849 C335.321,222.581 341.315,220.475 348.929,220.151 C356.381,219.827 362.536,221.285 362.698,223.553 z" fill="#F8B7B3" fill-opacity="0.702"/>
          <path d="M435.921,223.229 C436.083,225.497 430.089,227.603 422.637,228.089 C415.185,228.575 409.029,227.117 408.867,224.849 C408.705,222.581 414.699,220.475 422.151,219.989 C429.603,219.503 435.759,220.961 435.921,223.229 z" fill="#F8B7B3" fill-opacity="0.702"/>
        </g>
        <g>
          <path d="M422.151,218.369 L421.665,207.191 C421.665,207.191 421.989,211.241 422.151,218.369 z" fill="#FEFEFE"/>
          <path d="M421.827,207.191 C421.827,207.191 422.151,211.241 422.313,218.369" fill-opacity="0" stroke="#373435" stroke-width="6.463" stroke-linecap="round" stroke-linejoin="round"/>
          <path d="M349.739,218.369 L349.253,207.191 C349.253,207.191 349.577,211.241 349.739,218.369 z" fill="#FEFEFE"/>
          <path d="M349.253,207.191 C349.253,207.191 349.577,211.241 349.739,218.369" fill-opacity="0" stroke="#373435" stroke-width="6.463" stroke-linecap="round" stroke-linejoin="round"/>
        </g>
      </g>
      <path d="M383.758,217.883 C386.188,224.525 371.284,220.961 373.552,227.441 C375.01,231.653 385.054,230.519 388.294,230.195" fill-opacity="0" stroke="#373435" stroke-width="4.269" stroke-linecap="round" stroke-linejoin="round"/>
      <path d="M427.659,143.687 L440.78,111.936 C440.78,111.936 432.033,130.241 427.659,143.687 z" fill="#7A563B"/>
      <path d="M440.78,111.936 C440.78,111.936 432.033,130.241 427.659,143.687" fill-opacity="0" stroke="#373435" stroke-width="4.023" stroke-linecap="round" stroke-linejoin="round"/>
      <path d="M473.828,213.023 C473.342,135.749 434.625,127.002 434.625,127.002 C434.625,127.002 401.901,110.316 361.565,123.276 C341.963,129.594 311.67,145.307 296.604,168.959" fill-opacity="0" stroke="#373435" stroke-width="4.023" stroke-linecap="round" stroke-linejoin="round"/>
      <path d="M485.815,190.343 C480.469,121.008 438.512,116.958 438.512,116.958 C438.512,116.958 395.746,78.078 316.206,125.382" fill-opacity="0" stroke="#373435" stroke-width="4.023" stroke-linecap="round" stroke-linejoin="round"/>
      <path d="M429.927,132.995 C429.927,132.995 339.857,136.883 295.632,204.923" fill-opacity="0" stroke="#373435" stroke-width="4.023" stroke-linecap="round" stroke-linejoin="round"/>
    </g>
    <g>
      <g>
        <path d="M497.479,571.202 C479.011,589.832 465.566,582.866 465.566,582.866 C455.684,563.102 466.214,542.69 466.214,542.69 C485.005,534.752 498.613,553.058 498.613,553.058 L507.847,554.354 C507.847,554.354 521.94,545.444 530.04,551.762 C530.04,551.762 535.224,574.766 529.068,586.106 C529.068,586.106 515.622,588.05 505.417,573.47 L497.479,571.04 z" fill="#FFFFFF"/>
        <path d="M497.479,571.202 C479.011,589.832 465.566,582.866 465.566,582.866 C455.684,563.102 466.214,542.69 466.214,542.69 C485.005,534.752 498.613,553.058 498.613,553.058 L507.847,554.354 C507.847,554.354 521.94,545.444 530.04,551.762 C530.04,551.762 535.224,574.766 529.068,586.106 C529.068,586.106 515.622,588.05 505.417,573.47 L497.479,571.04 z" fill-opacity="0" stroke="#373435" stroke-width="4.833" stroke-linejoin="round"/>
      </g>
      <path d="M481.927,560.024 L498.775,560.672 C498.775,560.672 477.229,547.55 476.095,553.058 C474.961,558.728 482.089,559.862 482.089,559.862 z" fill="#FFFFFF"/>
      <path d="M498.613,560.672 C498.613,560.672 477.067,547.55 475.934,553.058 C474.8,558.728 481.927,559.862 481.927,559.862" fill-opacity="0" stroke="#373435" stroke-width="4.833" stroke-linecap="round" stroke-linejoin="round"/>
      <path d="M484.195,568.772 L497.803,565.37 C497.803,565.37 490.027,569.096 484.195,568.772 z" fill="#FFFFFF"/>
      <path d="M497.641,565.37 C497.641,565.37 489.865,569.096 484.033,568.772" fill-opacity="0" stroke="#373435" stroke-width="4.833" stroke-linecap="round" stroke-linejoin="round"/>
      <path d="M521.778,558.89 L508.495,561.32 C508.495,561.32 518.052,556.784 521.778,558.89 z" fill="#FFFFFF"/>
      <path d="M508.495,561.32 C508.495,561.32 518.052,556.784 521.778,558.89" fill-opacity="0" stroke="#373435" stroke-width="4.833" stroke-linecap="round" stroke-linejoin="round"/>
      <path d="M518.214,572.336 L510.115,566.018 C510.115,566.018 514.974,571.526 518.214,572.336 z" fill="#FFFFFF"/>
      <path d="M510.277,566.018 C510.277,566.018 515.136,571.526 518.376,572.336" fill-opacity="0" stroke="#373435" stroke-width="4.833" stroke-linecap="round" stroke-linejoin="round"/>
      <path d="M505.255,573.47 L507.847,554.354 C507.847,554.354 509.305,564.236 505.255,573.47 z" fill="#FFFFFF"/>
      <path d="M507.847,554.354 C507.847,554.354 509.305,564.236 505.255,573.47" fill-opacity="0" stroke="#373435" stroke-width="4.833" stroke-linecap="round" stroke-linejoin="round"/>
      <path d="M497.479,571.202 L498.613,553.22 C498.613,553.22 500.395,563.264 497.479,571.202 z" fill="#FFFFFF"/>
      <path d="M498.613,553.058 C498.613,553.058 500.395,563.102 497.479,571.04" fill-opacity="0" stroke="#373435" stroke-width="4.833" stroke-linecap="round" stroke-linejoin="round"/>
    </g>
    <g>
      <g>
        <path d="M374.848,532.16 C352.655,555.164 336.293,547.388 336.293,547.388 C329.327,519.524 337.103,499.436 337.103,499.436 C359.783,489.068 376.306,510.614 376.306,510.614 L387.484,511.91 C387.484,511.91 407.571,493.442 420.855,497.978 C420.855,497.978 438.674,525.842 420.045,551.6 C420.045,551.6 394.45,554.84 384.406,533.294 L374.848,532.322 z" fill="#FFFFFF"/>
        <path d="M374.848,532.16 C352.655,555.164 336.293,547.388 336.293,547.388 C329.327,519.524 337.103,499.436 337.103,499.436 C359.783,489.068 376.306,510.614 376.306,510.614 L387.484,511.91 C387.484,511.91 407.571,493.442 420.855,497.978 C420.855,497.978 438.674,525.842 420.045,551.6 C420.045,551.6 394.45,554.84 384.406,533.294 L374.848,532.322 z" fill-opacity="0" stroke="#373435" stroke-width="4.455" stroke-linejoin="round"/>
      </g>
      <path d="M355.895,519.524 L374.038,518.552 C374.038,518.552 350.063,504.782 348.605,511.586 C347.309,518.228 355.895,519.524 355.895,519.524 z" fill="#FFFFFF"/>
      <path d="M374.2,518.39 C374.2,518.39 350.225,504.62 348.767,511.424 C347.471,518.066 356.057,519.362 356.057,519.362" fill-opacity="0" stroke="#373435" stroke-width="4.455" stroke-linecap="round" stroke-linejoin="round"/>
      <path d="M358.649,529.892 L374.038,525.518 C374.038,525.518 365.614,529.892 358.649,529.892 z" fill="#FFFFFF"/>
      <path d="M374.2,525.68 C374.2,525.68 365.776,530.054 358.811,530.054" fill-opacity="0" stroke="#373435" stroke-width="4.455" stroke-linecap="round" stroke-linejoin="round"/>
      <path d="M410.001,514.664 L388.132,520.01 C388.132,520.01 403.035,513.368 410.001,514.664 z" fill="#FFFFFF"/>
      <path d="M387.97,520.172 C387.97,520.172 402.873,513.53 409.839,514.826" fill-opacity="0" stroke="#373435" stroke-width="4.455" stroke-linecap="round" stroke-linejoin="round"/>
      <path d="M399.958,532.808 L390.238,525.518 C390.238,525.518 396.232,531.836 399.958,532.808 z" fill="#FFFFFF"/>
      <path d="M390.238,525.68 C390.238,525.68 396.232,531.998 399.957,532.97" fill-opacity="0" stroke="#373435" stroke-width="4.455" stroke-linecap="round" stroke-linejoin="round"/>
      <path d="M384.082,533.294 L387.322,511.91 C387.322,511.91 388.942,522.116 384.082,533.294 z" fill="#FFFFFF"/>
      <path d="M387.484,511.91 C387.484,511.91 389.104,522.116 384.244,533.294" fill-opacity="0" stroke="#373435" stroke-width="4.455" stroke-linecap="round" stroke-linejoin="round"/>
      <path d="M374.848,532.16 L376.306,510.614 C376.306,510.614 373.066,521.954 374.848,532.16 z" fill="#FFFFFF"/>
      <path d="M376.144,510.614 C376.144,510.614 372.904,521.954 374.686,532.16" fill-opacity="0" stroke="#373435" stroke-width="4.455" stroke-linecap="round" stroke-linejoin="round"/>
    </g>
    <g>
      <g>
        <path d="M256.267,571.202 C274.735,589.832 288.18,582.866 288.18,582.866 C298.062,563.102 287.532,542.69 287.532,542.69 C268.741,534.752 255.133,553.058 255.133,553.058 L245.9,554.354 C245.9,554.354 231.806,545.444 223.706,551.762 C223.706,551.762 218.522,574.766 224.678,586.106 C224.678,586.106 238.124,588.05 248.329,573.47 L256.267,571.04 z" fill="#FFFFFF"/>
        <path d="M256.267,571.202 C274.735,589.832 288.18,582.866 288.18,582.866 C298.062,563.102 287.532,542.69 287.532,542.69 C268.741,534.752 255.133,553.058 255.133,553.058 L245.9,554.354 C245.9,554.354 231.806,545.444 223.706,551.762 C223.706,551.762 218.522,574.766 224.678,586.106 C224.678,586.106 238.124,588.05 248.329,573.47 L256.267,571.04 z" fill-opacity="0" stroke="#373435" stroke-width="4.833" stroke-linejoin="round"/>
      </g>
      <path d="M271.819,560.024 L254.971,560.672 C254.971,560.672 276.517,547.55 277.651,553.058 C278.785,558.728 271.657,559.862 271.657,559.862 z" fill="#FFFFFF"/>
      <path d="M254.971,560.672 C254.971,560.672 276.517,547.55 277.651,553.058 C278.785,558.728 271.657,559.862 271.657,559.862" fill-opacity="0" stroke="#373435" stroke-width="4.833" stroke-linecap="round" stroke-linejoin="round"/>
      <path d="M269.551,568.772 L255.943,565.37 C255.943,565.37 263.719,569.096 269.551,568.772 z" fill="#FFFFFF"/>
      <path d="M255.943,565.37 C255.943,565.37 263.719,569.096 269.551,568.772" fill-opacity="0" stroke="#373435" stroke-width="4.833" stroke-linecap="round" stroke-linejoin="round"/>
      <path d="M231.968,558.89 L245.252,561.32 C245.252,561.32 235.694,556.784 231.968,558.89 z" fill="#FFFFFF"/>
      <path d="M245.252,561.32 C245.252,561.32 235.694,556.784 231.968,558.89" fill-opacity="0" stroke="#373435" stroke-width="4.833" stroke-linecap="round" stroke-linejoin="round"/>
      <path d="M235.37,572.336 L243.47,566.018 C243.47,566.018 238.61,571.526 235.37,572.336 z" fill="#FFFFFF"/>
      <path d="M243.47,566.018 C243.47,566.018 238.61,571.526 235.37,572.336" fill-opacity="0" stroke="#373435" stroke-width="4.833" stroke-linecap="round" stroke-linejoin="round"/>
      <path d="M248.33,573.47 L245.738,554.354 C245.738,554.354 244.28,564.236 248.33,573.47 z" fill="#FFFFFF"/>
      <path d="M245.738,554.354 C245.738,554.354 244.28,564.236 248.329,573.47" fill-opacity="0" stroke="#373435" stroke-width="4.833" stroke-linecap="round" stroke-linejoin="round"/>
      <path d="M256.267,571.202 L255.133,553.22 C255.133,553.22 253.351,563.264 256.267,571.202 z" fill="#FFFFFF"/>
      <path d="M254.971,553.058 C254.971,553.058 253.189,563.102 256.105,571.04" fill-opacity="0" stroke="#373435" stroke-width="4.833" stroke-linecap="round" stroke-linejoin="round"/>
    </g>
    <path d="M301.14,768.516 C380.518,725.424 381.328,549.98 381.328,549.98 C381.328,549.98 370.312,695.131 448.88,772.728" fill-opacity="0" stroke="#373435" stroke-width="4.455" stroke-linecap="round" stroke-linejoin="round"/>
    <path d="M438.836,354.61 L433.815,339.706 C433.815,339.706 436.569,348.292 438.836,354.61 z" fill="#FCD7C4"/>
    <path d="M433.815,339.544 C433.815,339.544 436.569,348.13 438.836,354.448" fill-opacity="0" stroke="#373435" stroke-width="4.457" stroke-linecap="round" stroke-linejoin="round"/>
    <g>
      <path d="M345.365,343.432 L340.343,352.018 z" fill="#FCD7C4"/>
      <path d="M345.365,343.432 L340.343,352.018 z" fill-opacity="0" stroke="#373435" stroke-width="4.457" stroke-linejoin="round"/>
    </g>
    <path d="M375.01,107.724 C375.01,107.724 284.617,195.527 276.841,361.414 C276.841,361.414 276.031,399.645 277.651,414.387 C277.651,414.387 275.869,403.047 245.576,408.231 C215.12,413.415 202.971,425.565 188.229,397.863 C188.229,397.863 176.889,391.707 168.304,402.237 C168.304,402.237 180.453,50.376 366.424,75.648 L375.172,107.724 z" fill="#D5EFFC" fill-opacity="0.639"/>
    <g>
      <path d="M218.198,383.769 L220.304,404.505 C255.133,416.655 271.009,416.979 294.174,422.811 C294.336,422.811 294.498,422.811 294.822,422.811 L290.61,400.779 C280.081,397.215 247.52,394.461 218.198,383.607 z" fill="#E7E8E8"/>
      <path d="M218.198,383.769 L220.304,404.505 C255.133,416.655 271.009,416.979 294.174,422.811 C294.336,422.811 294.498,422.811 294.822,422.811 L290.61,400.779 C280.081,397.215 247.52,394.461 218.198,383.607 z" fill-opacity="0" stroke="#373435" stroke-width="4.455" stroke-linejoin="round"/>
    </g>
    <path d="M400.281,95.574 C400.281,95.574 490.675,183.377 498.451,349.264 C498.451,349.264 499.261,387.495 497.641,402.237 C497.641,402.237 499.423,390.897 529.716,396.081 C560.171,401.265 572.321,413.415 587.062,385.713 C587.062,385.713 598.402,379.557 606.988,390.087 C606.988,390.087 594.838,38.226 408.867,63.498 L400.119,95.574 z" fill="#D5EFFC" fill-opacity="0.639"/>
    <g>
      <g>
        <path d="M430.575,130.241 C443.048,140.933 438.674,150.653 422.799,149.033 C424.581,164.909 414.861,169.283 404.007,156.809 C393.316,169.283 383.596,164.909 385.216,149.033 C369.34,150.815 364.966,141.095 377.44,130.241 C364.966,119.55 369.34,109.668 385.216,111.45 C383.434,95.574 393.154,91.2 404.007,103.674 C414.699,91.2 424.581,95.574 422.799,111.45 C438.674,109.668 443.048,119.388 430.575,130.241 z" fill="#FFCE40"/>
        <path d="M430.575,130.241 C443.048,140.933 438.674,150.653 422.799,149.033 C424.581,164.909 414.861,169.283 404.007,156.809 C393.316,169.283 383.596,164.909 385.216,149.033 C369.34,150.815 364.966,141.095 377.44,130.241 C364.966,119.55 369.34,109.668 385.216,111.45 C383.434,95.574 393.154,91.2 404.007,103.674 C414.699,91.2 424.581,95.574 422.799,111.45 C438.674,109.668 443.048,119.388 430.575,130.241 z" fill-opacity="0" stroke="#373435" stroke-width="4.455"/>
      </g>
      <g>
        <path d="M384.73,100.596 C395.908,110.316 392.02,119.064 377.764,117.606 C379.384,131.861 370.474,135.911 360.754,124.572 C351.035,135.749 342.287,131.861 343.745,117.606 C329.489,119.226 325.439,110.316 336.779,100.596 C325.601,90.876 329.489,82.128 343.745,83.586 C342.125,69.33 351.035,65.28 360.754,76.62 C370.474,65.442 379.222,69.33 377.764,83.586 C392.02,81.966 396.07,90.876 384.73,100.596 z" fill="#FBB042"/>
        <path d="M384.73,100.596 C395.908,110.316 392.02,119.064 377.764,117.606 C379.384,131.861 370.474,135.911 360.754,124.572 C351.035,135.749 342.287,131.861 343.745,117.606 C329.489,119.226 325.439,110.316 336.779,100.596 C325.601,90.876 329.489,82.128 343.745,83.586 C342.125,69.33 351.035,65.28 360.754,76.62 C370.474,65.442 379.222,69.33 377.764,83.586 C392.02,81.966 396.07,90.876 384.73,100.596 z" fill-opacity="0" stroke="#373435" stroke-width="4.455"/>
      </g>
      <g>
        <path d="M471.074,107.724 C481.117,116.472 477.553,124.247 464.756,122.79 C466.214,135.587 458.276,139.151 449.69,129.107 C440.942,139.151 433.167,135.587 434.625,122.79 C421.827,124.247 418.263,116.31 428.307,107.724 C418.263,98.976 421.827,91.2 434.625,92.658 C433.167,79.86 441.104,76.296 449.69,86.34 C458.438,76.296 466.214,79.86 464.756,92.658 C477.553,91.2 481.117,99.138 471.074,107.724 z" fill="#FBB042"/>
        <path d="M471.074,107.724 C481.117,116.472 477.553,124.247 464.756,122.79 C466.214,135.587 458.276,139.151 449.69,129.107 C440.942,139.151 433.167,135.587 434.625,122.79 C421.827,124.247 418.263,116.31 428.307,107.724 C418.263,98.976 421.827,91.2 434.625,92.658 C433.167,79.86 441.104,76.296 449.69,86.34 C458.438,76.296 466.214,79.86 464.756,92.658 C477.553,91.2 481.117,99.138 471.074,107.724 z" fill-opacity="0" stroke="#373435" stroke-width="4.455"/>
      </g>
      <g>
        <path d="M437.54,83.424 C450.014,94.116 445.64,103.998 429.765,102.216 C431.547,118.092 421.827,122.466 410.973,109.992 C400.281,122.466 390.562,118.092 392.182,102.216 C376.306,103.998 371.932,94.278 384.406,83.424 C371.932,72.732 376.306,62.85 392.182,64.632 C390.4,48.756 400.119,44.382 410.973,56.856 C421.665,44.382 431.385,48.756 429.765,64.632 C445.64,62.85 450.014,72.57 437.54,83.424 z" fill="#F58C84"/>
        <path d="M437.54,83.424 C450.014,94.116 445.64,103.998 429.765,102.216 C431.547,118.092 421.827,122.466 410.973,109.992 C400.281,122.466 390.562,118.092 392.182,102.216 C376.306,103.998 371.932,94.278 384.406,83.424 C371.932,72.732 376.306,62.85 392.182,64.632 C390.4,48.756 400.119,44.382 410.973,56.856 C421.665,44.382 431.385,48.756 429.765,64.632 C445.64,62.85 450.014,72.57 437.54,83.424 z" fill-opacity="0" stroke="#373435" stroke-width="4.455"/>
      </g>
    </g>
    <g>
      <g>
        <path d="M91.842,759.768 C91.842,759.768 42.595,776.778 55.393,776.778 C68.352,776.778 113.387,768.192 113.387,768.192 L114.521,774.672 L119.867,774.672 L123.107,752.154 L91.842,759.768 z" fill="#373435"/>
        <path d="M91.842,759.768 C91.842,759.768 42.595,776.778 55.393,776.778 C68.352,776.778 113.387,768.192 113.387,768.192 L114.521,774.672 L119.867,774.672 L123.107,752.154 L91.842,759.768 z" fill-opacity="0" stroke="#373435" stroke-width="4.771"/>
      </g>
      <g>
        <path d="M157.612,759.768 C157.612,759.768 206.859,776.778 194.061,776.778 C181.101,776.778 136.067,768.192 136.067,768.192 L134.933,774.672 L129.587,774.672 L126.347,752.154 L157.612,759.768 z" fill="#373435"/>
        <path d="M157.612,759.768 C157.612,759.768 206.859,776.778 194.061,776.778 C181.101,776.778 136.067,768.192 136.067,768.192 L134.933,774.672 L129.587,774.672 L126.347,752.154 L157.612,759.768 z" fill-opacity="0" stroke="#373435" stroke-width="4.771"/>
      </g>
      <g>
        <path d="M201.027,559.862 C201.027,559.862 187.419,579.788 165.712,597.77 L156.64,499.274 C156.64,499.274 218.036,530.864 200.865,559.862 z" fill="#AAACAE"/>
        <path d="M201.027,559.862 C201.027,559.862 187.419,579.788 165.712,597.77 L156.64,499.274 C156.64,499.274 218.036,530.864 200.865,559.862 z" fill-opacity="0" stroke="#373435" stroke-width="4.771" stroke-linejoin="round"/>
      </g>
      <g>
        <path d="M51.991,559.862 C51.991,559.862 65.598,579.788 87.306,597.77 L96.378,499.274 C96.378,499.274 34.981,530.864 52.153,559.862 z" fill="#AAACAE"/>
        <path d="M51.991,559.862 C51.991,559.862 65.598,579.788 87.306,597.77 L96.378,499.274 C96.378,499.274 34.981,530.864 52.153,559.862 z" fill-opacity="0" stroke="#373435" stroke-width="4.771" stroke-linejoin="round"/>
      </g>
      <path d="M188.715,332.74 L167.008,319.456 C167.008,319.456 173.974,309.898 175.593,308.602 C177.213,307.306 188.715,332.902 188.715,332.902 z" fill="#FEFEFE"/>
      <path d="M167.008,319.456 C167.008,319.456 173.974,309.898 175.593,308.602 C177.213,307.306 188.715,332.902 188.715,332.902" fill-opacity="0" stroke="#D3D4D5" stroke-width="4.771" stroke-linecap="round" stroke-linejoin="round"/>
      <g>
        <path d="M118.895,260.65 L122.783,269.398 L134.933,269.236 L138.82,259.84 L128.777,249.473 z" fill="#E0E1E2"/>
        <path d="M118.895,260.65 L122.783,269.398 L134.933,269.236 L138.82,259.84 L128.777,249.473 z" fill-opacity="0" stroke="#373435" stroke-width="4.771" stroke-linejoin="round"/>
      </g>
      <g>
        <path d="M123.107,269.722 L134.933,269.722 C134.933,269.722 142.87,287.056 144.976,338.734 C145.138,341.164 128.615,353.152 128.291,353.152 C127.967,353.152 114.521,328.204 114.521,328.204 C114.521,328.204 113.711,293.05 122.945,269.884 z" fill="#E0E1E2"/>
        <path d="M123.107,269.722 L134.933,269.722 C134.933,269.722 142.87,287.056 144.976,338.734 C145.138,341.164 128.615,353.152 128.291,353.152 C127.967,353.152 114.521,328.204 114.521,328.204 C114.521,328.204 113.711,293.05 122.945,269.884 z" fill-opacity="0" stroke="#373435" stroke-width="4.455"/>
      </g>
      <g>
        <path d="M95.73,284.626 L130.235,349.264 L158.422,284.95 L146.596,432.855 L111.605,430.587 z" fill="#939597"/>
        <path d="M95.73,284.626 L130.235,349.264 L158.422,284.95 L146.596,432.855 L111.605,430.587 z" fill-opacity="0" stroke="#373435" stroke-width="4.455" stroke-linejoin="round"/>
      </g>
      <g>
        <path d="M162.796,759.606 L125.699,759.606 L127.319,526.166 L123.593,759.606 L91.842,759.768 L65.922,462.825 L190.497,455.535 z" fill="#939597"/>
        <path d="M162.796,759.606 L125.699,759.606 L127.319,526.166 L123.593,759.606 L91.842,759.768 L65.922,462.825 L190.497,455.535 z" fill-opacity="0" stroke="#373435" stroke-width="4.455" stroke-linejoin="round"/>
      </g>
      <g>
        <path d="M57.661,468.981 L49.399,538.802 C45.673,558.242 54.583,563.588 54.583,563.588 C47.131,553.544 61.387,547.064 61.387,547.064 C77.1,538.478 101.561,522.44 115.979,510.128 C124.889,502.514 126.995,489.068 126.995,489.068 C126.995,489.068 128.129,502.352 136.067,509.156 C149.512,520.658 177.213,538.154 191.145,545.12 C191.145,545.12 203.781,550.466 201.027,559.538 C201.027,559.538 205.563,557.756 205.563,549.656 L202.809,476.433 C202.809,476.433 245.414,411.957 258.211,385.713 C264.043,373.725 230.348,304.714 211.719,273.286 C195.195,257.41 155.668,244.289 155.668,244.289 C155.668,244.289 157.288,324.64 129.749,400.617 C103.991,322.858 99.455,247.853 99.455,247.853 C99.455,247.853 55.717,265.186 47.131,276.85 C22.022,385.713 21.212,460.881 15.38,492.308 C15.38,492.308 25.909,499.274 43.567,498.14 C43.567,498.14 56.041,408.069 62.52,360.28 C62.52,416.493 57.823,468.819 57.823,468.819 z M200.703,419.733 L200.703,419.733 L204.915,327.07 L225.65,375.183 L200.703,419.733 z" fill="#E7E8E8"/>
        <path d="M57.661,468.981 L49.399,538.802 C45.673,558.242 54.583,563.588 54.583,563.588 C47.131,553.544 61.387,547.064 61.387,547.064 C77.1,538.478 101.561,522.44 115.979,510.128 C124.889,502.514 126.995,489.068 126.995,489.068 C126.995,489.068 128.129,502.352 136.067,509.156 C149.512,520.658 177.213,538.154 191.145,545.12 C191.145,545.12 203.781,550.466 201.027,559.538 C201.027,559.538 205.563,557.756 205.563,549.656 L202.809,476.433 C202.809,476.433 245.414,411.957 258.211,385.713 C264.043,373.725 230.348,304.714 211.719,273.286 C195.195,257.41 155.668,244.289 155.668,244.289 C155.668,244.289 157.288,324.64 129.749,400.617 C103.991,322.858 99.455,247.853 99.455,247.853 C99.455,247.853 55.717,265.186 47.131,276.85 C22.022,385.713 21.212,460.881 15.38,492.308 C15.38,492.308 25.909,499.274 43.567,498.14 C43.567,498.14 56.041,408.069 62.52,360.28 C62.52,416.493 57.823,468.819 57.823,468.819 z M200.703,419.733 L200.703,419.733 L204.915,327.07 L225.65,375.183 L200.703,419.733 z" fill-opacity="0" stroke="#373435" stroke-width="4.455" stroke-linejoin="round"/>
      </g>
      <g>
        <path d="M105.449,247.042 L115.655,267.292 L129.263,248.986 L143.518,267.616 L154.858,245.422 L146.596,239.429 C146.596,239.429 132.017,252.55 115.007,240.725 L105.611,246.88 z" fill="#FEFEFE"/>
        <path d="M105.449,247.042 L115.655,267.292 L129.263,248.986 L143.518,267.616 L154.858,245.422 L146.596,239.429 C146.596,239.429 132.017,252.55 115.007,240.725 L105.611,246.88 z" fill-opacity="0" stroke="#373435" stroke-width="4.771" stroke-linejoin="round"/>
      </g>
      <g>
        <path d="M129.101,399.645 C106.097,337.276 113.873,237.971 113.873,237.971 L96.378,248.014 L75.966,294.184 L93.624,300.988 L74.346,312.976 C74.346,312.976 112.739,358.174 129.587,401.427 L129.911,401.427 L129.101,399.645 z" fill="#E7E8E8"/>
        <path d="M129.101,399.645 C106.097,337.276 113.873,237.971 113.873,237.971 L96.378,248.014 L75.966,294.184 L93.624,300.988 L74.346,312.976 C74.346,312.976 112.739,358.174 129.587,401.427 L129.911,401.427 L129.101,399.645 z" fill-opacity="0" stroke="#373435" stroke-width="4.455" stroke-linejoin="round"/>
      </g>
      <g>
        <path d="M132.827,443.709 C132.827,446.463 130.559,448.569 127.967,448.569 C125.213,448.569 123.107,446.301 123.107,443.709 C123.107,440.955 125.375,438.849 127.967,438.849 C130.721,438.849 132.827,441.117 132.827,443.709 z" fill="#E7E8E8"/>
        <path d="M132.827,443.709 C132.827,446.463 130.559,448.569 127.967,448.569 C125.213,448.569 123.107,446.301 123.107,443.709 C123.107,440.955 125.375,438.849 127.967,438.849 C130.721,438.849 132.827,441.117 132.827,443.709 z" fill-opacity="0" stroke="#373435" stroke-width="4.455" stroke-linejoin="round"/>
      </g>
      <g>
        <path d="M132.827,416.817 C132.827,419.571 130.559,421.677 127.967,421.677 C125.213,421.677 123.107,419.409 123.107,416.817 C123.107,414.063 125.375,411.957 127.967,411.957 C130.721,411.957 132.827,414.225 132.827,416.817 z" fill="#E7E8E8"/>
        <path d="M132.827,416.817 C132.827,419.571 130.559,421.677 127.967,421.677 C125.213,421.677 123.107,419.409 123.107,416.817 C123.107,414.063 125.375,411.957 127.967,411.957 C130.721,411.957 132.827,414.225 132.827,416.817 z" fill-opacity="0" stroke="#373435" stroke-width="4.455" stroke-linejoin="round"/>
      </g>
      <g>
        <path d="M132.827,470.925 C132.827,473.679 130.559,475.785 127.967,475.785 C125.213,475.785 123.107,473.517 123.107,470.925 C123.107,468.171 125.375,466.065 127.967,466.065 C130.721,466.065 132.827,468.333 132.827,470.925 z" fill="#E7E8E8"/>
        <path d="M132.827,470.925 C132.827,473.679 130.559,475.785 127.967,475.785 C125.213,475.785 123.107,473.517 123.107,470.925 C123.107,468.171 125.375,466.065 127.967,466.065 C130.721,466.065 132.827,468.333 132.827,470.925 z" fill-opacity="0" stroke="#373435" stroke-width="4.455" stroke-linejoin="round"/>
      </g>
      <g>
        <path d="M129.587,401.913 C152.59,339.544 147.244,236.999 147.244,236.999 L163.93,247.69 L182.721,296.452 L165.064,303.256 L184.017,312.976 C184.017,312.976 145.948,360.442 129.101,403.695 L128.777,403.695 L129.587,401.913 z" fill="#E7E8E8"/>
        <path d="M129.587,401.913 C152.59,339.544 147.244,236.999 147.244,236.999 L163.93,247.69 L182.721,296.452 L165.064,303.256 L184.017,312.976 C184.017,312.976 145.948,360.442 129.101,403.695 L128.777,403.695 L129.587,401.913 z" fill-opacity="0" stroke="#373435" stroke-width="4.455" stroke-linejoin="round"/>
      </g>
    </g>
    <path d="M192.927,337.276 L169.762,336.466 C169.762,336.466 179.319,321.724 180.777,320.428 C182.397,319.132 192.927,337.276 192.927,337.276 z" fill="#FEFEFE"/>
    <path d="M169.762,336.304 C169.762,336.304 179.319,321.562 180.777,320.266 C182.397,318.97 192.927,337.114 192.927,337.114" fill-opacity="0" stroke="#373435" stroke-width="4.455" stroke-linecap="round" stroke-linejoin="round"/>
    <g>
      <path d="M169.438,336.952 L194.061,337.276 L194.547,345.862 L168.304,346.348 z" fill="#E7E8E8"/>
      <path d="M169.438,336.952 L194.061,337.276 L194.547,345.862 L168.304,346.348 z" fill-opacity="0" stroke="#373435" stroke-width="4.455" stroke-linejoin="round"/>
    </g>
    <path d="M172.03,67.548 L175.269,25.428 C175.269,25.428 180.453,34.338 172.03,67.548 z" fill="#7A563B"/>
    <path d="M175.269,25.266 C175.269,25.266 180.453,34.176 172.03,67.386" fill-opacity="0" stroke="#373435" stroke-width="4.455" stroke-linecap="round" stroke-linejoin="round"/>
    <path d="M90.546,100.434 L175.269,43.41 C175.269,43.41 159.718,60.258 90.546,100.434 z" fill="#7A563B"/>
    <path d="M175.269,43.41 C175.269,43.41 159.718,60.258 90.546,100.434" fill-opacity="0" stroke="#373435" stroke-width="4.455" stroke-linecap="round" stroke-linejoin="round"/>
    <path d="M69.486,79.698 L176.241,40.008 C176.241,40.008 119.705,37.902 69.486,79.698 z" fill="#7A563B"/>
    <path d="M176.241,40.17 C176.241,40.17 119.705,38.064 69.486,79.86" fill-opacity="0" stroke="#373435" stroke-width="4.455" stroke-linecap="round" stroke-linejoin="round"/>
    <path d="M114.197,31.26 L175.431,32.07 C175.431,32.07 139.63,20.244 114.197,31.26 z" fill="#7A563B"/>
    <path d="M175.269,32.07 C175.269,32.07 139.468,20.244 114.035,31.26" fill-opacity="0" stroke="#373435" stroke-width="4.455" stroke-linecap="round" stroke-linejoin="round"/>
    <path d="M214.634,89.094 L176.727,46.974 C176.727,46.974 196.977,84.072 214.634,89.094 z" fill="#7A563B"/>
    <path d="M176.565,46.812 C176.565,46.812 196.815,83.91 214.472,88.932" fill-opacity="0" stroke="#373435" stroke-width="4.455" stroke-linecap="round" stroke-linejoin="round"/>
    <path d="M199.731,55.236 L176.565,34.986 C176.565,34.986 190.497,49.728 199.731,55.236 z" fill="#7A563B"/>
    <path d="M176.565,34.986 C176.565,34.986 190.497,49.728 199.731,55.236" fill-opacity="0" stroke="#373435" stroke-width="4.455" stroke-linecap="round" stroke-linejoin="round"/>
    <g>
      <path d="M222.41,379.233 C222.41,379.233 236.018,381.663 233.426,386.523 C231.644,389.763 222.248,387.009 222.248,387.009 C222.248,387.009 230.996,391.059 229.7,393.651 C228.404,396.405 222.572,395.109 219.332,393.327 C219.332,393.327 225.974,397.863 223.22,400.455 C220.466,403.047 214.472,398.025 214.472,398.025 C214.472,398.025 217.388,402.885 214.472,404.505 C210.261,406.935 204.915,395.595 208.317,394.299 C208.479,393.489 206.697,388.467 213.338,389.601 C213.338,389.601 210.099,382.959 215.93,383.283 C215.93,383.283 213.824,376.479 222.41,379.233 z" fill="#FFFBD8"/>
      <path d="M222.41,379.233 C222.41,379.233 236.018,381.663 233.426,386.523 C231.644,389.763 222.248,387.009 222.248,387.009 C222.248,387.009 230.996,391.059 229.7,393.651 C228.404,396.405 222.572,395.109 219.332,393.327 C219.332,393.327 225.974,397.863 223.22,400.455 C220.466,403.047 214.472,398.025 214.472,398.025 C214.472,398.025 217.388,402.885 214.472,404.505 C210.261,406.935 204.915,395.595 208.317,394.299 C208.479,393.489 206.697,388.467 213.338,389.601 C213.338,389.601 210.099,382.959 215.93,383.283 C215.93,383.283 213.824,376.479 222.41,379.233 z" fill-opacity="0" stroke="#373435" stroke-width="4.455" stroke-linejoin="round"/>
    </g>
    <path d="M203.619,489.878 L201.189,415.197 C201.189,415.197 199.569,435.285 203.619,489.878 z" fill="#E7E8E8"/>
    <path d="M201.189,415.197 C201.189,415.197 199.569,435.285 203.619,489.878" fill-opacity="0" stroke="#373435" stroke-width="4.455" stroke-linecap="round" stroke-linejoin="round"/>
    <path d="M62.196,364.167 L60.739,336.79 C60.739,336.79 63.006,353.152 62.196,364.167 z" fill="#E7E8E8"/>
    <path d="M60.739,336.79 C60.739,336.79 63.006,353.152 62.196,364.167" fill-opacity="0" stroke="#373435" stroke-width="4.455" stroke-linecap="round" stroke-linejoin="round"/>
    <g>
      <path d="M18.458,525.032 C18.458,525.032 22.508,543.338 19.268,552.896 C19.268,552.896 22.508,545.606 31.255,545.444 C34.657,545.444 27.691,552.734 40.327,549.494 C40.327,549.494 39.031,527.138 33.847,519.686 C28.825,512.072 15.218,521.954 18.296,525.194 z" fill="#FEFEFE"/>
      <path d="M18.458,525.032 C18.458,525.032 22.508,543.338 19.268,552.896 C19.268,552.896 22.508,545.606 31.255,545.444 C34.657,545.444 27.691,552.734 40.327,549.494 C40.327,549.494 39.031,527.138 33.847,519.686 C28.825,512.072 15.218,521.954 18.296,525.194 z" fill-opacity="0" stroke="#373435" stroke-width="4.457" stroke-linejoin="round"/>
    </g>
    <path d="M32.551,533.942 L28.015,518.39 C28.177,518.714 32.551,530.702 32.551,533.942 z" fill="#FEFEFE"/>
    <path d="M28.015,518.39 C28.177,518.714 32.551,530.702 32.551,533.942" fill-opacity="0" stroke="#373435" stroke-width="4.457" stroke-linecap="round" stroke-linejoin="round"/>
    <path d="M25.423,532.484 L23.156,519.848 C23.156,519.848 25.747,526.328 25.423,532.484 z" fill="#FEFEFE"/>
    <path d="M23.318,519.848 C23.318,519.848 25.909,526.328 25.585,532.484" fill-opacity="0" stroke="#373435" stroke-width="4.457" stroke-linecap="round" stroke-linejoin="round"/>
    <g>
      <path d="M373.876,311.032 C373.876,313.138 372.094,314.92 369.988,314.92 C367.882,314.92 366.262,313.138 366.262,311.032 C366.262,308.926 368.044,307.144 369.988,307.144 C372.094,307.144 373.876,308.926 373.876,311.032 z" fill="#E7E8E8"/>
      <path d="M373.876,311.032 C373.876,313.138 372.094,314.92 369.988,314.92 C367.882,314.92 366.262,313.138 366.262,311.032 C366.262,308.926 368.044,307.144 369.988,307.144 C372.094,307.144 373.876,308.926 373.876,311.032 z" fill-opacity="0" stroke="#373435" stroke-width="3.375" stroke-linejoin="round"/>
    </g>
    <g>
      <path d="M377.764,317.674 C377.764,319.78 375.982,321.4 374.038,321.4 C371.932,321.4 370.15,319.618 370.15,317.674 C370.15,315.568 371.932,313.786 374.038,313.786 C376.144,313.786 377.764,315.568 377.764,317.674 z" fill="#E7E8E8"/>
      <path d="M377.764,317.674 C377.764,319.78 375.982,321.4 374.038,321.4 C371.932,321.4 370.15,319.618 370.15,317.674 C370.15,315.568 371.932,313.786 374.038,313.786 C376.144,313.786 377.764,315.568 377.764,317.674 z" fill-opacity="0" stroke="#373435" stroke-width="3.375" stroke-linejoin="round"/>
    </g>
    <g>
      <path d="M383.758,322.21 C383.758,324.316 381.976,325.936 379.87,325.936 C377.764,325.936 376.144,324.154 376.144,322.21 C376.144,320.104 377.926,318.484 379.87,318.484 C381.976,318.484 383.758,320.266 383.758,322.21 z" fill="#E7E8E8"/>
      <path d="M383.758,322.21 C383.758,324.316 381.976,325.936 379.87,325.936 C377.764,325.936 376.144,324.154 376.144,322.21 C376.144,320.104 377.926,318.484 379.87,318.484 C381.976,318.484 383.758,320.266 383.758,322.21 z" fill-opacity="0" stroke="#373435" stroke-width="3.375" stroke-linejoin="round"/>
    </g>
    <g>
      <path d="M391.048,324.154 C391.048,326.26 389.428,327.88 387.322,327.88 C385.216,327.88 383.596,326.098 383.596,324.154 C383.596,322.048 385.378,320.428 387.322,320.428 C389.428,320.428 391.048,322.21 391.048,324.154 z" fill="#E7E8E8"/>
      <path d="M391.048,324.154 C391.048,326.26 389.428,327.88 387.322,327.88 C385.216,327.88 383.596,326.098 383.596,324.154 C383.596,322.048 385.378,320.428 387.322,320.428 C389.428,320.428 391.048,322.21 391.048,324.154 z" fill-opacity="0" stroke="#373435" stroke-width="3.375" stroke-linejoin="round"/>
    </g>
    <g>
      <path d="M398.824,324.154 C398.824,326.26 397.042,327.88 394.936,327.88 C392.83,327.88 391.21,326.098 391.21,324.154 C391.21,322.048 392.992,320.428 394.936,320.428 C397.042,320.428 398.824,322.21 398.824,324.154 z" fill="#E7E8E8"/>
      <path d="M398.824,324.154 C398.824,326.26 397.042,327.88 394.936,327.88 C392.83,327.88 391.21,326.098 391.21,324.154 C391.21,322.048 392.992,320.428 394.936,320.428 C397.042,320.428 398.824,322.21 398.824,324.154 z" fill-opacity="0" stroke="#373435" stroke-width="3.375" stroke-linejoin="round"/>
    </g>
    <g>
      <path d="M405.951,321.562 C405.951,323.668 404.169,325.288 402.225,325.288 C400.119,325.288 398.337,323.506 398.337,321.562 C398.337,319.456 400.119,317.674 402.225,317.674 C404.331,317.674 405.951,319.456 405.951,321.562 z" fill="#E7E8E8"/>
      <path d="M405.951,321.562 C405.951,323.668 404.169,325.288 402.225,325.288 C400.119,325.288 398.337,323.506 398.337,321.562 C398.337,319.456 400.119,317.674 402.225,317.674 C404.331,317.674 405.951,319.456 405.951,321.562 z" fill-opacity="0" stroke="#373435" stroke-width="3.375" stroke-linejoin="round"/>
    </g>
    <g>
      <path d="M411.297,316.216 C411.297,318.322 409.515,320.104 407.409,320.104 C405.303,320.104 403.683,318.322 403.683,316.216 C403.683,314.11 405.465,312.49 407.409,312.49 C409.515,312.49 411.297,314.272 411.297,316.216 z" fill="#E7E8E8"/>
      <path d="M411.297,316.216 C411.297,318.322 409.515,320.104 407.409,320.104 C405.303,320.104 403.683,318.322 403.683,316.216 C403.683,314.11 405.465,312.49 407.409,312.49 C409.515,312.49 411.297,314.272 411.297,316.216 z" fill-opacity="0" stroke="#373435" stroke-width="3.375" stroke-linejoin="round"/>
    </g>
    <g>
      <path d="M413.889,309.088 C413.889,311.194 412.107,312.814 410.163,312.814 C408.057,312.814 406.437,311.032 406.437,309.088 C406.437,306.982 408.057,305.362 410.163,305.362 C412.269,305.362 413.889,307.144 413.889,309.088 z" fill="#E7E8E8"/>
      <path d="M413.889,309.088 C413.889,311.194 412.107,312.814 410.163,312.814 C408.057,312.814 406.437,311.032 406.437,309.088 C406.437,306.982 408.057,305.362 410.163,305.362 C412.269,305.362 413.889,307.144 413.889,309.088 z" fill-opacity="0" stroke="#373435" stroke-width="3.375" stroke-linejoin="round"/>
    </g>
  </g>
</svg>
