<?xml version="1.0" ?><svg data-name="Layer 5" id="Layer_5" viewBox="0 0 32 32" xmlns="http://www.w3.org/2000/svg"><defs><style>.cls-1{fill:#fff;}.cls-2{fill:#ffbbbc;}.cls-3{fill:#fee9be;}.cls-4{fill:#361041;}.cls-5{fill:#ffd58a;}</style></defs><path class="cls-1" d="M26.92,23.62l-.35-8.14L24.42,11,20.9,9l-9.56.08L6.83,12,4.92,15.33l-.43,3.73.9,4.44L4.3,26.43l1.3,1.23,4.28.7h.62L10.72,27l.54.06.08,0,1.6.18.2.93.37.5,1.71.61.75.11.69-.26.93-.33.54-.58.49-.82.95-.32.37-.28.1,0,.13,1.69,4.47-.46,3.12-1.91Z"/><polygon class="cls-2" points="12.71 8.77 13.6 10.44 16.75 10.06 19.78 10.5 20.87 9.22 20.93 7.91 19.7 7.46 18.8 8.02 18.28 6.47 16.93 5.58 15.43 5.84 14.41 7.48 13.3 7.12 12.71 7.63 12.71 8.77"/><polygon class="cls-3" points="10.8 26.97 11.84 27.27 12.94 27.31 13.09 28.16 13.8 28.91 15.85 29.48 16.46 29.24 17.54 28.88 18.08 28.38 18.62 27.47 19.26 27.24 20.04 26.85 20.17 27.78 20.04 28.93 19.29 29.82 17.88 30.07 16.14 29.91 14.89 30.23 13.57 30.23 12.13 29.9 10.99 29.02 10.65 28.11 10.65 27.36 10.8 26.97"/><polygon class="cls-3" points="9.07 18.3 9.45 19.43 10.25 20.62 11.65 21.78 13.06 22.29 14.41 22.56 14.67 23.17 14.32 23.76 13.32 24.46 11.73 25.41 12.57 25.88 14.17 26.34 15.61 26.43 17.21 26.36 18.3 25.89 19.14 25.36 18.28 24.89 17.29 24.33 16.68 23.86 16.47 23.14 16.37 22.5 17.76 22.29 19.51 21.45 20.83 20.41 21.97 19.06 22.7 17.6 22.89 17 23.95 16.95 24.64 16.58 24.8 16.08 24.33 15.48 23.86 15.31 23.17 15.48 22.75 14.68 18.36 10.56 16.02 12.57 11.73 15 9.15 15.82 8.66 16.23 7.84 16.31 7.03 16.55 6.83 17 7.03 17.52 7.96 17.85 8.91 17.74 9.07 18.3"/><path class="cls-4" d="M10.55,17.22c.3.73,1.26.27,1.17-.42C11.67,15.91,10.2,16.33,10.55,17.22Z"/><path class="cls-4" d="M19.94,17.14a.61.61,0,0,0,.9-.83C20.29,15.64,19.36,16.57,19.94,17.14Z"/><path class="cls-4" d="M19.22,15.05l.18,0a2.84,2.84,0,0,1,1.55.15c.15.07.78.72.9.43.06-.14-.23-.36-.33-.43A2.48,2.48,0,0,0,20,14.69c-.17,0-.78,0-.89.07S19,15.08,19.22,15.05Z"/><path class="cls-4" d="M16.87,21.17c.2-.17.59-1.11.1-.77-.23.16-.18.52-.55.66a1.25,1.25,0,0,1-.85,0c-.3-.11-.45-.57-.66-.64-.4-.12-.2.31-.08.49A1.47,1.47,0,0,0,16.87,21.17Z"/><path class="cls-4" d="M4.49,25c-.18.49-1,1.3-.62,1.79a6.64,6.64,0,0,0,4.78,2.18c.23,0,1.17-.16,1.36,0s.35.65.49.8A4.09,4.09,0,0,0,13,30.83a7.16,7.16,0,0,0,2.57-.1,5.33,5.33,0,0,1,.94-.22c.44,0,.92.15,1.37.17a3.16,3.16,0,0,0,2.23-.7,10,10,0,0,0,.67-.79c.24-.24.11-.19.5-.15a6.32,6.32,0,0,0,.87,0,8.88,8.88,0,0,0,5.07-1.66c.34-.25,1-.71,1.08-1.17s-.44-1.37-.6-1.88a17.67,17.67,0,0,1-.39-5.14,15.54,15.54,0,0,0-.55-5.48,8.25,8.25,0,0,0-3.43-4.22,11.09,11.09,0,0,0-1.23-.65c-.2-.1-.44-.15-.52-.3s0-.52-.07-.72A1.77,1.77,0,0,0,19.13,7c-.45-2.19-4.43-2.67-5.11-.4a1.55,1.55,0,0,0-1.86.86,3.32,3.32,0,0,0-.24.59c-.12.3,0,.28-.26.42a7.62,7.62,0,0,1-1.25.41A11.76,11.76,0,0,0,6,12.16a8.44,8.44,0,0,0-2,5,11.45,11.45,0,0,0,.14,3c.07.4.14.8.22,1.2s.13.51.18.77c0,.06.12.62.12.57A5,5,0,0,1,4.49,25Zm11.25,4.91c-1.68.63-5.7-.21-4.81-2.72a3.5,3.5,0,0,0,1.86.27c-.09,1.14.79,1.71,1.78,1.95C14.69,29.4,16.26,29.65,15.74,29.87Zm-1.31-1a1.63,1.63,0,0,1-1.25-1.06c-.15-.54.09-.72-.57-.72a3.22,3.22,0,0,1-1.56-.26c.13-.3.49-1.08.83-1.15,0,0,.58.33.6.33a6.56,6.56,0,0,0,1,.35,8,8,0,0,0,4,.05,4.52,4.52,0,0,0,.85-.36c.15-.09.63-.51.76-.5s.52.58.61.75c.21.4.19.38-.14.62s-.9.18-1.17.49-.33.88-.74,1.18l0,0c-.41.4-1.21.23-1.62.62C15.86,29.38,14.69,29,14.43,28.89Zm.21-5.23a1.32,1.32,0,0,0,.06-.92c.29,0,1.3-.18,1.5,0s.17,1,.32,1.19c.55.76,1.56,1,2.3,1.47A6.08,6.08,0,0,1,17.7,26a7.36,7.36,0,0,1-2.42.28,6,6,0,0,1-3.15-.81C12.89,24.87,14.13,24.51,14.64,23.66Zm-3.27-2.27a5.68,5.68,0,0,1-2-3c-.15-.47-.59-1.93-.23-2.26a3.37,3.37,0,0,1,.68-.22l1.14-.4a34,34,0,0,0,3.72-1.62A10.89,10.89,0,0,0,18.37,11a7.53,7.53,0,0,0,2.55,3.25,7,7,0,0,0,1.54.9c.53.25.59.15.49.75a7.69,7.69,0,0,1-4.52,5.87,9,9,0,0,1-3.6.52A6,6,0,0,1,11.37,21.39Zm8,7.94a3.32,3.32,0,0,1-2.41.45c-1.36-.21-.5-.31.2-.57a2.55,2.55,0,0,0,1.37-1.33c.19-.33.15-.33.53-.44a3.6,3.6,0,0,0,.84-.4l0,.21A2.67,2.67,0,0,1,19.4,29.33Zm1.85-19.7a3.8,3.8,0,0,1,1.16.48,8.42,8.42,0,0,1,2,1.88A9.51,9.51,0,0,1,26,15.84c.31,2.43,0,4.89.25,7.32a7.79,7.79,0,0,0,.29,1.5c.11.37.52.88.56,1.23.07.53-1.58,1.31-2,1.48h0a7.11,7.11,0,0,1-2.2.59c-.45,0-.89.05-1.34.05a5.24,5.24,0,0,0-1.11-.08A3.14,3.14,0,0,0,19,25c-.74-.51-2.45-.87-2.45-1.91,0-.28-.09-.34.1-.46a2.68,2.68,0,0,1,.66-.11,6,6,0,0,0,1.32-.41A6.89,6.89,0,0,0,20.54,21,7.93,7.93,0,0,0,23,17.27c.3.12.52.32.43.67s-.71.38-.67.72.44.25.52.45,0,.37-.18.53c-.33.34-.64.28-.22.69s.21.3-.27.63,0,.31,0,.66-.7.36-.34.63.66-.36.7-.54-.07-.35,0-.42.16-.05.23-.12c.34-.33.74-.82-.07-1.11.77-.13.66-1.11.14-1.45a.86.86,0,0,0,.31-1.46c.63,0,1.43-.16,1.47-.91s-.93-1.19-1.62-1a5.06,5.06,0,0,0-2.94-5l-.18-.06c.15-.14.28-.39.44-.5S21,9.57,21.25,9.63Zm1.83,7.13a6.07,6.07,0,0,1,.22-1.17c.27-.27,1.05,0,1.22.27C25.07,16.82,23.58,16.79,23.08,16.76ZM13.05,8c.37-.71,1-.26,1.39.17.61.75.41-.26.48-.67a1.64,1.64,0,0,1,2.74-1.07,2.12,2.12,0,0,1,.68,1.49c0,.66-.07,1,.52.57a2.83,2.83,0,0,1,.65-.41.84.84,0,0,1,1.2.52,1.67,1.67,0,0,1-.44,1.15c-.33.55-.88.23-1.43.17-.92-.09-1.86-.17-2.78-.18a10.28,10.28,0,0,0-1.47.11c-.28,0-.73.22-1,.09A1.69,1.69,0,0,1,13.05,8ZM5.17,16.22a7.8,7.8,0,0,1,1.69-3.43A14.8,14.8,0,0,1,8,11.66,15.6,15.6,0,0,1,11,9.8l.72-.31c.26-.1.88-.37,1.07-.23s.36.66.53.85c-2.59.73-5.29,3-4.85,6-.61,0-1.56-.07-1.76.7s.71,1.32,1.39,1.29c-.62.32-1,1.3-.17,1.56-.67.32-1.23,1.64-.06,1.64-.41.47-.13.9.41,1.08-.28.1-.05.7.07.83s.83.37.63-.06-.48,0-.39-.51c0-.24.28-.31.15-.57s-.48-.08-.58-.26c-.19-.38.77-.6.43-.94s-.8.26-1-.05.74-.82.89-1c.58-.62-.29-.4-.54-.66s.59-.95.84-1.15A5.64,5.64,0,0,0,11,21.57a5.93,5.93,0,0,0,1.76.88,12,12,0,0,1,1.65.39c0,.42,0,.65-.3.87-1.33,1-3.94,2-3.68,4.18a18.25,18.25,0,0,0-2-.14A6.85,6.85,0,0,1,5,26.43a3.9,3.9,0,0,0,.84-2,7.39,7.39,0,0,0-.48-3.18A9.46,9.46,0,0,1,5.17,16.22ZM8.64,17.5c-.13.17-1,.08-1.13,0-1.54-.7,1.16-1.61,1.05-.79A2.85,2.85,0,0,1,8.64,17.5Z"/><path class="cls-5" d="M11.91,17.42c-.24,0-.49.51-.19.48S12.23,17.42,11.91,17.42Z"/><path class="cls-5" d="M19.73,17.39c-.3-.15-.21.42.14.43S19.91,17.49,19.73,17.39Z"/><circle class="cls-2" cx="11.59" cy="19.26" r="0.93"/><circle class="cls-2" cx="19.99" cy="19.21" r="0.93"/><circle class="cls-1" cx="11.01" cy="16.85" r="0.27"/><circle class="cls-1" cx="20.26" cy="16.57" r="0.27"/></svg>